# This file uses centimeters as units for non-parametric coordinates.

mtllib containerNoHoles.mtl
g default
v 4.413202 1.052170 -3.885221
v -3.586798 1.052170 -3.885221
v -3.586798 1.052170 4.114779
v 4.413202 1.052170 4.114779
v -3.586798 4.995233 -3.885221
v 4.413202 4.995233 -3.885221
v 4.413202 4.995233 4.114779
v -3.586798 4.995233 4.114779
v -4.724532 -0.004767 -4.862266
v -4.724532 -0.004767 5.137734
v -4.724532 4.995233 5.137734
v -4.724532 4.995233 -4.862266
v 5.275468 -0.004767 5.137734
v 5.275468 -0.004767 -4.862266
v 5.275468 4.995233 -4.862266
v 5.275468 4.995233 5.137734
vt 0.375000 0.000000
vt 0.625000 0.000000
vt 0.375000 0.250000
vt 0.625000 0.250000
vt 0.375000 0.500000
vt 0.625000 0.500000
vt 0.375000 0.750000
vt 0.625000 0.750000
vt 0.375000 1.000000
vt 0.625000 1.000000
vt 0.875000 0.000000
vt 0.875000 0.250000
vt 0.125000 0.000000
vt 0.125000 0.250000
vt 0.375000 0.000000
vt 0.625000 0.000000
vt 0.375000 0.750000
vt 0.625000 0.750000
vt 0.375000 1.000000
vt 0.625000 1.000000
vt 0.875000 0.000000
vt 0.125000 0.000000
vt 0.625000 0.503559
vt 0.375000 0.503559
vt 0.625000 0.246441
vt 0.875000 0.246441
vt 0.375000 0.246441
vt 0.625000 0.246441
vt 0.125000 0.246441
vt 0.375000 0.246441
vt 0.403443 0.475574
vt 0.403443 0.275574
vt 0.603443 0.275574
vt 0.603443 0.475574
vn 0.000000 1.000000 0.000000
vn 0.000000 1.000000 0.000000
vn 0.000000 1.000000 0.000000
vn 0.000000 1.000000 0.000000
vn 0.000000 0.000000 1.000000
vn 0.000000 0.000000 1.000000
vn 0.000000 0.000000 1.000000
vn 0.000000 0.000000 1.000000
vn -1.000000 0.000000 0.000000
vn -1.000000 0.000000 0.000000
vn -1.000000 0.000000 0.000000
vn -1.000000 0.000000 0.000000
vn 0.000000 0.000000 -1.000000
vn 0.000000 0.000000 -1.000000
vn 0.000000 0.000000 -1.000000
vn 0.000000 0.000000 -1.000000
vn 1.000000 0.000000 0.000000
vn 1.000000 0.000000 0.000000
vn 1.000000 0.000000 0.000000
vn 1.000000 0.000000 0.000000
vn -1.000000 0.000000 0.000000
vn -1.000000 0.000000 0.000000
vn -1.000000 0.000000 0.000000
vn -1.000000 0.000000 0.000000
vn 1.000000 0.000000 0.000000
vn 1.000000 0.000000 0.000000
vn 1.000000 0.000000 0.000000
vn 1.000000 0.000000 0.000000
vn 0.000000 -1.000000 0.000000
vn 0.000000 -1.000000 0.000000
vn 0.000000 -1.000000 0.000000
vn 0.000000 -1.000000 0.000000
vn 0.000000 0.000000 -1.000000
vn 0.000000 0.000000 -1.000000
vn 0.000000 0.000000 -1.000000
vn 0.000000 0.000000 -1.000000
vn 0.000000 1.000000 0.000000
vn 0.000000 1.000000 0.000000
vn 0.000000 1.000000 0.000000
vn 0.000000 1.000000 0.000000
vn 0.000000 1.000000 -0.000000
vn 0.000000 1.000000 0.000000
vn 0.000000 1.000000 -0.000000
vn 0.000000 1.000000 -0.000000
vn 0.000000 0.000000 1.000000
vn 0.000000 0.000000 1.000000
vn 0.000000 0.000000 1.000000
vn 0.000000 0.000000 1.000000
s 1
g polySurface8
usemtl initialShadingGroup
f 1/18/1 2/17/2 4/20/3
f 4/20/3 2/17/2 3/19/4
s 2
f 5/24/5 2/17/6 6/23/7
f 6/23/7 2/17/6 1/18/8
s 3
f 6/26/9 1/21/10 7/25/11
f 7/25/11 1/21/10 4/16/12
s 4
f 7/28/13 4/16/14 8/27/15
f 8/27/15 4/16/14 3/15/16
s 5
f 8/30/17 3/15/18 5/29/19
f 5/29/19 3/15/18 2/22/20
s 6
f 9/13/21 10/1/22 12/14/23
f 12/14/23 10/1/22 11/3/24
s 7
f 13/2/25 14/11/26 16/4/27
f 16/4/27 14/11/26 15/12/28
s 8
f 9/7/29 14/8/30 10/9/31
f 10/9/31 14/8/30 13/10/32
s 9
f 12/5/33 15/6/34 9/7/35
f 9/7/35 15/6/34 14/8/36
s 10
f 11/3/37 16/4/38 8/32/39
f 8/32/39 16/4/38 7/33/40
f 16/4/38 15/6/41 7/33/40
f 7/33/40 15/6/41 6/34/42
f 11/3/37 8/32/39 12/5/43
f 8/32/39 5/31/44 12/5/43
f 12/5/43 5/31/44 15/6/41
f 5/31/44 6/34/42 15/6/41
s 11
f 10/1/45 13/2/46 11/3/47
f 11/3/47 13/2/46 16/4/48
