# This file uses centimeters as units for non-parametric coordinates.

mtllib planeSquareHole.mtl
g default
v 1.500000 -0.500000 -1.500000
v 1.500000 0.500000 -1.500000
v -1.500000 -0.500000 -1.500000
v 1.500000 -0.500000 1.500000
v 1.500000 0.500000 1.500000
v -1.500000 -0.500000 1.500000
v -1.500000 0.500000 1.500000
v -1.500000 0.500000 -1.500000
v -2.500000 0.500000 -2.500000
v -2.500000 -0.500000 2.500000
v -2.500000 0.500000 2.500000
v -2.500000 -0.500000 -2.500000
v 2.500000 0.500000 2.500000
v 2.500000 -0.500000 -2.500000
v 2.500000 0.500000 -2.500000
v 2.500000 -0.500000 2.500000
vt 0.375000 0.000000
vt 0.625000 0.000000
vt 0.375000 0.250000
vt 0.625000 0.250000
vt 0.375000 0.500000
vt 0.625000 0.500000
vt 0.375000 0.750000
vt 0.625000 0.750000
vt 0.375000 1.000000
vt 0.625000 1.000000
vt 0.875000 0.000000
vt 0.875000 0.250000
vt 0.125000 0.000000
vt 0.125000 0.250000
vt 0.375000 0.250000
vt 0.625000 0.750000
vt 0.875000 0.000000
vt 0.375000 0.750000
vt 0.625000 0.500000
vt 0.625000 0.250000
vt 0.625000 0.000000
vt 0.625000 0.000000
vt 0.375000 0.000000
vt 0.375000 0.000000
vt 0.125000 0.250000
vt 0.125000 0.000000
vt 0.625000 0.500000
vt 0.375000 0.750000
vt 0.375000 0.500000
vt 0.625000 0.250000
vt 0.875000 0.250000
vt 0.625000 0.000000
vt 0.625000 0.250000
vt 0.125000 0.250000
vt 0.375000 0.000000
vt 0.425000 0.950000
vt 0.575000 0.800000
vt 0.575000 0.950000
vt 0.575000 0.800000
vt 0.425000 0.950000
vt 0.425000 0.800000
vt 0.425000 0.450000
vt 0.575000 0.300000
vt 0.575000 0.450000
vt 0.575000 0.300000
vt 0.425000 0.450000
vt 0.425000 0.300000
vn 0.000000 0.000000 1.000000
vn 0.000000 0.000000 1.000000
vn 0.000000 0.000000 1.000000
vn -1.000000 0.000000 0.000000
vn -1.000000 0.000000 0.000000
vn -1.000000 0.000000 0.000000
vn 0.000000 0.000000 -1.000000
vn 0.000000 0.000000 -1.000000
vn 0.000000 0.000000 -1.000000
vn 1.000000 0.000000 0.000000
vn 1.000000 0.000000 0.000000
vn 1.000000 0.000000 0.000000
vn 0.000000 0.000000 1.000000
vn -1.000000 0.000000 0.000000
vn 0.000000 0.000000 -1.000000
vn 1.000000 0.000000 0.000000
vn -1.000000 0.000000 0.000000
vn -1.000000 0.000000 0.000000
vn -1.000000 0.000000 0.000000
vn -1.000000 0.000000 0.000000
vn 1.000000 0.000000 0.000000
vn 1.000000 0.000000 0.000000
vn 1.000000 0.000000 0.000000
vn 1.000000 0.000000 0.000000
vn 0.000000 -1.000000 0.000000
vn 0.000000 -1.000000 0.000000
vn 0.000000 -1.000000 0.000000
vn 0.000000 -1.000000 0.000000
vn 0.000000 -1.000000 0.000000
vn 0.000000 -1.000000 0.000000
vn 0.000000 -1.000000 0.000000
vn 0.000000 -1.000000 0.000000
vn 0.000000 0.000000 -1.000000
vn 0.000000 0.000000 -1.000000
vn 0.000000 0.000000 -1.000000
vn 0.000000 0.000000 -1.000000
vn 0.000000 1.000000 0.000000
vn 0.000000 1.000000 0.000000
vn 0.000000 1.000000 0.000000
vn 0.000000 1.000000 0.000000
vn 0.000000 1.000000 0.000000
vn 0.000000 1.000000 0.000000
vn 0.000000 1.000000 0.000000
vn 0.000000 1.000000 0.000000
vn 0.000000 0.000000 1.000000
vn 0.000000 0.000000 1.000000
vn 0.000000 0.000000 1.000000
vn 0.000000 0.000000 1.000000
s 1
g polySurface1
usemtl initialShadingGroup
f 1/16/1 2/19/2 3/18/3
s 2
f 4/21/4 5/20/5 1/17/6
s 3
f 6/23/7 7/15/8 4/22/9
s 4
f 3/26/10 8/25/11 6/24/12
s 1
f 8/29/13 3/28/3 2/27/2
s 2
f 2/31/14 1/17/6 5/30/5
s 3
f 5/33/15 4/32/9 7/15/8
s 4
f 7/15/16 6/35/12 8/34/11
s 5
f 9/14/17 10/1/18 11/3/19
f 12/13/20 10/1/18 9/14/17
s 6
f 13/4/21 14/11/22 15/12/23
f 16/2/24 14/11/22 13/4/21
s 7
f 14/8/25 16/10/26 1/37/27
f 1/37/27 16/10/26 4/38/28
f 16/10/26 10/9/29 4/38/28
f 4/38/28 10/9/29 6/36/30
f 10/9/29 12/7/31 6/40/30
f 6/40/30 12/7/31 3/41/32
f 12/7/31 14/8/25 3/41/32
f 3/41/32 14/8/25 1/39/27
s 8
f 12/7/33 15/6/34 14/8/35
f 9/5/36 15/6/34 12/7/33
s 9
f 13/4/37 15/6/38 5/43/39
f 5/43/39 15/6/38 2/44/40
f 15/6/38 9/5/41 2/44/40
f 2/44/40 9/5/41 8/42/42
f 9/5/41 11/3/43 8/46/42
f 8/46/42 11/3/43 7/47/44
f 11/3/43 13/4/37 7/47/44
f 7/47/44 13/4/37 5/45/39
s 10
f 11/3/45 16/2/46 13/4/47
f 10/1/48 16/2/46 11/3/45
g default
v 1.500000 -0.500000 -1.500000
v 1.500000 0.500000 -1.500000
v -1.500000 -0.500000 -1.500000
v 1.500000 -0.500000 1.500000
v 1.500000 0.500000 1.500000
v -1.500000 -0.500000 1.500000
v -1.500000 0.500000 1.500000
v -1.500000 0.500000 -1.500000
v -2.500000 0.500000 -2.500000
v -2.500000 -0.500000 2.500000
v -2.500000 0.500000 2.500000
v -2.500000 -0.500000 -2.500000
v 2.500000 0.500000 2.500000
v 2.500000 -0.500000 -2.500000
v 2.500000 0.500000 -2.500000
v 2.500000 -0.500000 2.500000
vt 0.375000 0.000000
vt 0.625000 0.000000
vt 0.375000 0.250000
vt 0.625000 0.250000
vt 0.375000 0.500000
vt 0.625000 0.500000
vt 0.375000 0.750000
vt 0.625000 0.750000
vt 0.375000 1.000000
vt 0.625000 1.000000
vt 0.875000 0.000000
vt 0.875000 0.250000
vt 0.125000 0.000000
vt 0.125000 0.250000
vt 0.375000 0.250000
vt 0.625000 0.750000
vt 0.875000 0.000000
vt 0.375000 0.750000
vt 0.625000 0.500000
vt 0.625000 0.250000
vt 0.625000 0.000000
vt 0.625000 0.000000
vt 0.375000 0.000000
vt 0.375000 0.000000
vt 0.125000 0.250000
vt 0.125000 0.000000
vt 0.625000 0.500000
vt 0.375000 0.750000
vt 0.375000 0.500000
vt 0.625000 0.250000
vt 0.875000 0.250000
vt 0.625000 0.000000
vt 0.625000 0.250000
vt 0.125000 0.250000
vt 0.375000 0.000000
vt 0.425000 0.950000
vt 0.575000 0.800000
vt 0.575000 0.950000
vt 0.575000 0.800000
vt 0.425000 0.950000
vt 0.425000 0.800000
vt 0.425000 0.450000
vt 0.575000 0.300000
vt 0.575000 0.450000
vt 0.575000 0.300000
vt 0.425000 0.450000
vt 0.425000 0.300000
vn 0.000000 0.000000 1.000000
vn 0.000000 0.000000 1.000000
vn 0.000000 0.000000 1.000000
vn -1.000000 0.000000 0.000000
vn -1.000000 0.000000 0.000000
vn -1.000000 0.000000 0.000000
vn 0.000000 0.000000 -1.000000
vn 0.000000 0.000000 -1.000000
vn 0.000000 0.000000 -1.000000
vn 1.000000 0.000000 0.000000
vn 1.000000 0.000000 0.000000
vn 1.000000 0.000000 0.000000
vn 0.000000 0.000000 1.000000
vn -1.000000 0.000000 0.000000
vn 0.000000 0.000000 -1.000000
vn 1.000000 0.000000 0.000000
vn -1.000000 0.000000 0.000000
vn -1.000000 0.000000 0.000000
vn -1.000000 0.000000 0.000000
vn -1.000000 0.000000 0.000000
vn 1.000000 0.000000 0.000000
vn 1.000000 0.000000 0.000000
vn 1.000000 0.000000 0.000000
vn 1.000000 0.000000 0.000000
vn 0.000000 -1.000000 0.000000
vn 0.000000 -1.000000 0.000000
vn 0.000000 -1.000000 0.000000
vn 0.000000 -1.000000 0.000000
vn 0.000000 -1.000000 0.000000
vn 0.000000 -1.000000 0.000000
vn 0.000000 -1.000000 0.000000
vn 0.000000 -1.000000 0.000000
vn 0.000000 0.000000 -1.000000
vn 0.000000 0.000000 -1.000000
vn 0.000000 0.000000 -1.000000
vn 0.000000 0.000000 -1.000000
vn 0.000000 1.000000 0.000000
vn 0.000000 1.000000 0.000000
vn 0.000000 1.000000 0.000000
vn 0.000000 1.000000 0.000000
vn 0.000000 1.000000 0.000000
vn 0.000000 1.000000 0.000000
vn 0.000000 1.000000 0.000000
vn 0.000000 1.000000 0.000000
vn 0.000000 0.000000 1.000000
vn 0.000000 0.000000 1.000000
vn 0.000000 0.000000 1.000000
vn 0.000000 0.000000 1.000000
s 1
g polySurface1
f 17/63/49 18/66/50 19/65/51
s 2
f 20/68/52 21/67/53 17/64/54
s 3
f 22/70/55 23/62/56 20/69/57
s 4
f 19/73/58 24/72/59 22/71/60
s 1
f 24/76/61 19/75/51 18/74/50
s 2
f 18/78/62 17/64/54 21/77/53
s 3
f 21/80/63 20/79/57 23/62/56
s 4
f 23/62/64 22/82/60 24/81/59
s 5
f 25/61/65 26/48/66 27/50/67
f 28/60/68 26/48/66 25/61/65
s 6
f 29/51/69 30/58/70 31/59/71
f 32/49/72 30/58/70 29/51/69
s 7
f 30/55/73 32/57/74 17/84/75
f 17/84/75 32/57/74 20/85/76
f 32/57/74 26/56/77 20/85/76
f 20/85/76 26/56/77 22/83/78
f 26/56/77 28/54/79 22/87/78
f 22/87/78 28/54/79 19/88/80
f 28/54/79 30/55/73 19/88/80
f 19/88/80 30/55/73 17/86/75
s 8
f 28/54/81 31/53/82 30/55/83
f 25/52/84 31/53/82 28/54/81
s 9
f 29/51/85 31/53/86 21/90/87
f 21/90/87 31/53/86 18/91/88
f 31/53/86 25/52/89 18/91/88
f 18/91/88 25/52/89 24/89/90
f 25/52/89 27/50/91 24/93/90
f 24/93/90 27/50/91 23/94/92
f 27/50/91 29/51/85 23/94/92
f 23/94/92 29/51/85 21/92/87
s 10
f 27/50/93 32/49/94 29/51/95
f 26/48/96 32/49/94 27/50/93
