# This file uses centimeters as units for non-parametric coordinates.

mtllib planeHoles.mtl
g default
v -0.347046 1.083834 0.600106
v -0.347046 0.083834 0.600106
v 2.652955 0.083834 0.600106
v 2.652955 1.083834 0.600106
v 2.652955 0.083834 3.600106
v 2.652955 1.083834 3.600106
v -0.347046 0.083834 3.600106
v -0.347046 1.083834 3.600106
v -7.524402 0.083834 7.548802
v 7.475599 0.083834 7.548802
v 7.475599 1.083834 7.548802
v -7.524402 1.083834 7.548802
v 7.475599 1.083834 -7.451198
v -7.524402 1.083834 -7.451198
v 5.929772 1.083834 -2.771485
v 2.929772 1.083834 -2.771485
v 2.929772 1.083834 -5.771485
v 5.929772 1.083834 -5.771485
v 7.475599 0.083834 -7.451198
v -7.524402 0.083834 -7.451198
v 5.929772 0.083834 -5.771485
v 2.929772 0.083834 -5.771485
v 2.929772 0.083834 -2.771485
v 5.929772 0.083834 -2.771485
vt 0.375000 0.000000
vt 0.625000 0.000000
vt 0.375000 0.250000
vt 0.625000 0.250000
vt 0.375000 0.500000
vt 0.625000 0.500000
vt 0.375000 0.750000
vt 0.625000 0.750000
vt 0.375000 1.000000
vt 0.625000 1.000000
vt 0.875000 0.000000
vt 0.875000 0.250000
vt 0.125000 0.000000
vt 0.125000 0.250000
vt 0.875000 0.065233
vt 0.875000 0.190233
vt 0.625000 0.190233
vt 0.625000 0.065233
vt 0.375000 0.684767
vt 0.375000 0.559767
vt 0.625000 0.559767
vt 0.625000 0.684767
vt 0.375000 0.065233
vt 0.375000 0.190233
vt 0.125000 0.190233
vt 0.125000 0.065233
vt 0.625000 0.065233
vt 0.625000 0.190233
vt 0.375000 0.190233
vt 0.375000 0.065233
vt 0.599236 0.827995
vt 0.549236 0.827995
vt 0.549236 0.777995
vt 0.599236 0.777995
vt 0.599236 0.472005
vt 0.549236 0.472005
vt 0.549236 0.422005
vt 0.599236 0.422005
vt 0.625000 0.559767
vt 0.625000 0.684767
vt 0.375000 0.684767
vt 0.375000 0.559767
vt 0.625000 0.190233
vt 0.625000 0.065233
vt 0.875000 0.065233
vt 0.875000 0.190233
vt 0.375000 0.190233
vt 0.375000 0.065233
vt 0.625000 0.065233
vt 0.625000 0.190233
vt 0.125000 0.190233
vt 0.125000 0.065233
vt 0.375000 0.065233
vt 0.375000 0.190233
vt 0.494623 0.365812
vt 0.494623 0.315812
vt 0.544623 0.315812
vt 0.544623 0.365812
vt 0.494623 0.934188
vt 0.494623 0.884188
vt 0.544623 0.884188
vt 0.544623 0.934188
vn -0.000000 0.000000 1.000000
vn -0.000000 0.000000 1.000000
vn -0.000000 0.000000 1.000000
vn 0.000000 0.000000 1.000000
vn -1.000000 0.000000 0.000000
vn -1.000000 0.000000 0.000000
vn -1.000000 0.000000 0.000000
vn -1.000000 0.000000 0.000000
vn -0.000000 0.000000 -1.000000
vn -0.000000 0.000000 -1.000000
vn 0.000000 0.000000 -1.000000
vn 0.000000 0.000000 -1.000000
vn 1.000000 0.000000 0.000000
vn 1.000000 0.000000 0.000000
vn 1.000000 0.000000 0.000000
vn 1.000000 0.000000 0.000000
vn 0.000000 0.000000 1.000000
vn 0.000000 0.000000 1.000000
vn 0.000000 0.000000 1.000000
vn 0.000000 0.000000 1.000000
vn -0.000000 1.000000 0.000000
vn 0.000000 1.000000 0.000000
vn -0.000000 1.000000 0.000000
vn 0.000000 1.000000 0.000000
vn 0.000000 1.000000 0.000000
vn 0.000000 1.000000 0.000000
vn 0.000000 1.000000 0.000000
vn 0.000000 1.000000 0.000000
vn -0.000000 1.000000 -0.000000
vn -0.000000 1.000000 -0.000000
vn 0.000000 1.000000 -0.000000
vn 0.000000 1.000000 -0.000000
vn 0.000000 0.000000 -1.000000
vn 0.000000 0.000000 -1.000000
vn 0.000000 0.000000 -1.000000
vn 0.000000 0.000000 -1.000000
vn -0.000000 -1.000000 -0.000000
vn 0.000000 -1.000000 -0.000000
vn -0.000000 -1.000000 -0.000000
vn 0.000000 -1.000000 -0.000000
vn 0.000000 -1.000000 0.000000
vn -0.000000 -1.000000 0.000000
vn -0.000000 -1.000000 0.000000
vn -0.000000 -1.000000 -0.000000
vn 0.000000 -1.000000 0.000000
vn 0.000000 -1.000000 -0.000000
vn -0.000000 -1.000000 0.000000
vn 0.000000 -1.000000 0.000000
vn 1.000000 0.000000 0.000000
vn 1.000000 0.000000 0.000000
vn 1.000000 0.000000 0.000000
vn 1.000000 0.000000 0.000000
vn -1.000000 0.000000 0.000000
vn -1.000000 0.000000 0.000000
vn -1.000000 0.000000 0.000000
vn -1.000000 0.000000 0.000000
vn 0.000000 0.000000 -1.000000
vn 0.000000 0.000000 -1.000000
vn 0.000000 0.000000 -1.000000
vn 0.000000 0.000000 -1.000000
vn 1.000000 0.000000 0.000000
vn 1.000000 0.000000 0.000000
vn 1.000000 0.000000 0.000000
vn 1.000000 0.000000 0.000000
vn 0.000000 0.000000 1.000000
vn 0.000000 0.000000 1.000000
vn 0.000000 0.000000 1.000000
vn 0.000000 0.000000 1.000000
vn -1.000000 0.000000 0.000000
vn -1.000000 0.000000 0.000000
vn -1.000000 0.000000 0.000000
vn -1.000000 0.000000 0.000000
s 1
g polySurface2
usemtl initialShadingGroup
f 1/42/1 2/41/2 4/39/3
f 4/39/3 2/41/2 3/40/4
s 2
f 4/46/5 3/45/6 6/43/7
f 6/43/7 3/45/6 5/44/8
s 3
f 6/50/9 5/49/10 8/47/11
f 8/47/11 5/49/10 7/48/12
s 4
f 8/54/13 7/53/14 1/51/15
f 1/51/15 7/53/14 2/52/16
s 5
f 9/1/17 10/2/18 12/3/19
f 12/3/19 10/2/18 11/4/20
s 6
f 12/3/21 11/4/22 8/56/23
f 8/56/23 11/4/22 6/57/24
f 11/4/22 13/6/25 15/38/26
f 15/38/26 13/6/25 18/35/27
f 11/4/22 15/38/26 6/57/24
f 6/57/24 15/38/26 4/58/28
f 15/38/26 16/37/29 4/58/28
f 13/6/25 14/5/30 18/35/27
f 18/35/27 14/5/30 17/36/31
f 12/3/21 8/56/23 14/5/30
f 8/56/23 1/55/32 14/5/30
f 4/58/28 16/37/29 1/55/32
f 1/55/32 16/37/29 14/5/30
f 16/37/29 17/36/31 14/5/30
s 8
f 14/5/33 13/6/34 20/7/35
f 20/7/35 13/6/34 19/8/36
s 9
f 20/7/37 19/8/38 22/33/39
f 22/33/39 19/8/38 21/34/40
f 19/8/38 10/10/41 21/34/40
f 21/34/40 10/10/41 24/31/42
f 20/7/37 22/33/39 9/9/43
f 22/33/39 23/32/44 9/9/43
f 10/10/41 9/9/43 5/62/45
f 5/62/45 9/9/43 7/59/46
f 10/10/41 5/62/45 24/31/42
f 5/62/45 3/61/47 24/31/42
f 24/31/42 3/61/47 23/32/44
f 3/61/47 2/60/48 23/32/44
f 23/32/44 2/60/48 9/9/43
f 2/60/48 7/59/46 9/9/43
s 11
f 10/2/49 19/11/50 11/4/51
f 11/4/51 19/11/50 13/12/52
s 12
f 20/13/53 9/1/54 14/14/55
f 14/14/55 9/1/54 12/3/56
s 13
f 23/30/57 16/29/58 24/27/59
f 24/27/59 16/29/58 15/28/60
s 14
f 22/26/61 17/25/62 23/23/63
f 23/23/63 17/25/62 16/24/64
s 15
f 21/22/65 18/21/66 22/19/67
f 22/19/67 18/21/66 17/20/68
s 16
f 24/18/69 15/17/70 21/15/71
f 21/15/71 15/17/70 18/16/72
g default
v -0.347046 1.083834 0.600106
v -0.347046 0.083834 0.600106
v 2.652955 0.083834 0.600106
v 2.652955 1.083834 0.600106
v 2.652955 0.083834 3.600106
v 2.652955 1.083834 3.600106
v -0.347046 0.083834 3.600106
v -0.347046 1.083834 3.600106
v -7.524402 0.083834 7.548802
v 7.475599 0.083834 7.548802
v 7.475599 1.083834 7.548802
v -7.524402 1.083834 7.548802
v 7.475599 1.083834 -7.451198
v -7.524402 1.083834 -7.451198
v 5.929772 1.083834 -2.771485
v 2.929772 1.083834 -2.771485
v 2.929772 1.083834 -5.771485
v 5.929772 1.083834 -5.771485
v 7.475599 0.083834 -7.451198
v -7.524402 0.083834 -7.451198
v 5.929772 0.083834 -5.771485
v 2.929772 0.083834 -5.771485
v 2.929772 0.083834 -2.771485
v 5.929772 0.083834 -2.771485
vt 0.375000 0.000000
vt 0.625000 0.000000
vt 0.375000 0.250000
vt 0.625000 0.250000
vt 0.375000 0.500000
vt 0.625000 0.500000
vt 0.375000 0.750000
vt 0.625000 0.750000
vt 0.375000 1.000000
vt 0.625000 1.000000
vt 0.875000 0.000000
vt 0.875000 0.250000
vt 0.125000 0.000000
vt 0.125000 0.250000
vt 0.875000 0.065233
vt 0.875000 0.190233
vt 0.625000 0.190233
vt 0.625000 0.065233
vt 0.375000 0.684767
vt 0.375000 0.559767
vt 0.625000 0.559767
vt 0.625000 0.684767
vt 0.375000 0.065233
vt 0.375000 0.190233
vt 0.125000 0.190233
vt 0.125000 0.065233
vt 0.625000 0.065233
vt 0.625000 0.190233
vt 0.375000 0.190233
vt 0.375000 0.065233
vt 0.599236 0.827995
vt 0.549236 0.827995
vt 0.549236 0.777995
vt 0.599236 0.777995
vt 0.599236 0.472005
vt 0.549236 0.472005
vt 0.549236 0.422005
vt 0.599236 0.422005
vt 0.625000 0.559767
vt 0.625000 0.684767
vt 0.375000 0.684767
vt 0.375000 0.559767
vt 0.625000 0.190233
vt 0.625000 0.065233
vt 0.875000 0.065233
vt 0.875000 0.190233
vt 0.375000 0.190233
vt 0.375000 0.065233
vt 0.625000 0.065233
vt 0.625000 0.190233
vt 0.125000 0.190233
vt 0.125000 0.065233
vt 0.375000 0.065233
vt 0.375000 0.190233
vt 0.494623 0.365812
vt 0.494623 0.315812
vt 0.544623 0.315812
vt 0.544623 0.365812
vt 0.494623 0.934188
vt 0.494623 0.884188
vt 0.544623 0.884188
vt 0.544623 0.934188
vn -0.000000 0.000000 1.000000
vn -0.000000 0.000000 1.000000
vn -0.000000 0.000000 1.000000
vn 0.000000 0.000000 1.000000
vn -1.000000 0.000000 0.000000
vn -1.000000 0.000000 0.000000
vn -1.000000 0.000000 0.000000
vn -1.000000 0.000000 0.000000
vn -0.000000 0.000000 -1.000000
vn -0.000000 0.000000 -1.000000
vn 0.000000 0.000000 -1.000000
vn 0.000000 0.000000 -1.000000
vn 1.000000 0.000000 0.000000
vn 1.000000 0.000000 0.000000
vn 1.000000 0.000000 0.000000
vn 1.000000 0.000000 0.000000
vn 0.000000 0.000000 1.000000
vn 0.000000 0.000000 1.000000
vn 0.000000 0.000000 1.000000
vn 0.000000 0.000000 1.000000
vn -0.000000 1.000000 0.000000
vn 0.000000 1.000000 0.000000
vn -0.000000 1.000000 0.000000
vn 0.000000 1.000000 0.000000
vn 0.000000 1.000000 0.000000
vn 0.000000 1.000000 0.000000
vn 0.000000 1.000000 0.000000
vn 0.000000 1.000000 0.000000
vn -0.000000 1.000000 -0.000000
vn -0.000000 1.000000 -0.000000
vn 0.000000 1.000000 -0.000000
vn 0.000000 1.000000 -0.000000
vn 0.000000 0.000000 -1.000000
vn 0.000000 0.000000 -1.000000
vn 0.000000 0.000000 -1.000000
vn 0.000000 0.000000 -1.000000
vn -0.000000 -1.000000 -0.000000
vn 0.000000 -1.000000 -0.000000
vn -0.000000 -1.000000 -0.000000
vn 0.000000 -1.000000 -0.000000
vn 0.000000 -1.000000 0.000000
vn -0.000000 -1.000000 0.000000
vn -0.000000 -1.000000 0.000000
vn -0.000000 -1.000000 -0.000000
vn 0.000000 -1.000000 0.000000
vn 0.000000 -1.000000 -0.000000
vn -0.000000 -1.000000 0.000000
vn 0.000000 -1.000000 0.000000
vn 1.000000 0.000000 0.000000
vn 1.000000 0.000000 0.000000
vn 1.000000 0.000000 0.000000
vn 1.000000 0.000000 0.000000
vn -1.000000 0.000000 0.000000
vn -1.000000 0.000000 0.000000
vn -1.000000 0.000000 0.000000
vn -1.000000 0.000000 0.000000
vn 0.000000 0.000000 -1.000000
vn 0.000000 0.000000 -1.000000
vn 0.000000 0.000000 -1.000000
vn 0.000000 0.000000 -1.000000
vn 1.000000 0.000000 0.000000
vn 1.000000 0.000000 0.000000
vn 1.000000 0.000000 0.000000
vn 1.000000 0.000000 0.000000
vn 0.000000 0.000000 1.000000
vn 0.000000 0.000000 1.000000
vn 0.000000 0.000000 1.000000
vn 0.000000 0.000000 1.000000
vn -1.000000 0.000000 0.000000
vn -1.000000 0.000000 0.000000
vn -1.000000 0.000000 0.000000
vn -1.000000 0.000000 0.000000
s 1
g polySurface2
f 25/104/73 26/103/74 28/101/75
f 28/101/75 26/103/74 27/102/76
s 2
f 28/108/77 27/107/78 30/105/79
f 30/105/79 27/107/78 29/106/80
s 3
f 30/112/81 29/111/82 32/109/83
f 32/109/83 29/111/82 31/110/84
s 4
f 32/116/85 31/115/86 25/113/87
f 25/113/87 31/115/86 26/114/88
s 5
f 33/63/89 34/64/90 36/65/91
f 36/65/91 34/64/90 35/66/92
s 6
f 36/65/93 35/66/94 32/118/95
f 32/118/95 35/66/94 30/119/96
f 35/66/94 37/68/97 39/100/98
f 39/100/98 37/68/97 42/97/99
f 35/66/94 39/100/98 30/119/96
f 30/119/96 39/100/98 28/120/100
f 39/100/98 40/99/101 28/120/100
f 37/68/97 38/67/102 42/97/99
f 42/97/99 38/67/102 41/98/103
f 36/65/93 32/118/95 38/67/102
f 32/118/95 25/117/104 38/67/102
f 28/120/100 40/99/101 25/117/104
f 25/117/104 40/99/101 38/67/102
f 40/99/101 41/98/103 38/67/102
s 8
f 38/67/105 37/68/106 44/69/107
f 44/69/107 37/68/106 43/70/108
s 9
f 44/69/109 43/70/110 46/95/111
f 46/95/111 43/70/110 45/96/112
f 43/70/110 34/72/113 45/96/112
f 45/96/112 34/72/113 48/93/114
f 44/69/109 46/95/111 33/71/115
f 46/95/111 47/94/116 33/71/115
f 34/72/113 33/71/115 29/124/117
f 29/124/117 33/71/115 31/121/118
f 34/72/113 29/124/117 48/93/114
f 29/124/117 27/123/119 48/93/114
f 48/93/114 27/123/119 47/94/116
f 27/123/119 26/122/120 47/94/116
f 47/94/116 26/122/120 33/71/115
f 26/122/120 31/121/118 33/71/115
s 11
f 34/64/121 43/73/122 35/66/123
f 35/66/123 43/73/122 37/74/124
s 12
f 44/75/125 33/63/126 38/76/127
f 38/76/127 33/63/126 36/65/128
s 13
f 47/92/129 40/91/130 48/89/131
f 48/89/131 40/91/130 39/90/132
s 14
f 46/88/133 41/87/134 47/85/135
f 47/85/135 41/87/134 40/86/136
s 15
f 45/84/137 42/83/138 46/81/139
f 46/81/139 42/83/138 41/82/140
s 16
f 48/80/141 39/79/142 45/77/143
f 45/77/143 39/79/142 42/78/144
